# xmcd
#
# Track frame offsets:
#	150
#	15511
#	30589
#	45515
#	59908
#	74630
#	90337
#	104506
#	118626
#	134134
#	149877
#	164814
#	179714
#	194248
#	208171
#	223071
#	237476
#	252174
#	265630
#	281763
#
# Disc length: 3948 seconds
#
# Revision: 0
# Processed by: cddbd v1.5.2PL0 Copyright (c) Steve Scherf et al.
# Submitted via: EasyCDDAExtractor 16.0.6.1
#
DISCID=540f6a14
DTITLE=Συλλογικός δίσκος - Το ρεμπέτικο τραγούδι 1932-1941 1
DYEAR=2009
DGENRE=Ρεμπέτικη
TTITLE0=Δελλιάς Ανέστης - Το σακάκι [1935, Ανέστη Δελιά]
TTITLE1=Βαμβακάρης Μάρκος - Καραντουζένι [1932, Μάρκου Βαμβακάρη]
TTITLE2=Περπινιάδης Στελλάκης - Όλες όμορφες [1937, Στελλάκη Περπινιάδη]
TTITLE3=Βαμβακάρης Μάρκος - Πρέπει να ξέρεις μηχανή [1934, Μάρκου Βαμβακάρη]
TTITLE4=Περπινιάδης Στελλάκης - Εγώ θέλω πριγκηπέσσα [1936, Παναγιώτη Τούντα]
TTITLE5=Δελλιάς Ανέστης - Σούρα και μαστούρα [1936, Ανέστη Δελιά]
TTITLE6=Εσκενάζυ Ρόζα - Οι λαχανάδες [1934, Βαγγέλη Παπάζογλου]
TTITLE7=Παγιουμτζής Στράτος-Περπινιάδης Στελλάκης - Θέλω να σ' ανταμώσω [1939,
TTITLE7=Δημήτρη Γκόγκου]
TTITLE8=Παπαϊωάννου Γιάννης - Βαδίζω με παράπονο [1939, Γιώργου Φωτιάδη-Γ. Παπ
TTITLE8=αϊωάννου]
TTITLE9=Καλυβόπουλος Αντώνης - Γιοβάν Τσαούς [1936, Γιάννη Εϊτζιρίδη ή Γιοβάν 
TTITLE9=Τσαούς]
TTITLE10=Παγιουμτζής Στράτος-Περπινιάδης Στελλάκης - Η ψευτοφιλία [1937, Δημ. 
TTITLE10=Σέμση-Στελλάκη Περπινιάδη]
TTITLE11=Περπινιάδης Στελλάκης - Η γάτα [1936, Δημήτρη Γκόγκου]
TTITLE12=Παγιουμτζής Στράτος-Περπινιάδης Στελλάκης - Για κάποια στα Υδραίϊκα [
TTITLE12=1939, Δημ. Σέμση-Δημ. Γκόγκου]
TTITLE13=Ρούκουνας Κώστας ή Σαμιωτάκης - Ερηνάκι [1936, Κώστα Σκαρβέλη]
TTITLE14=Μπάτης Γιώργος - Ο φασούλας [1936, Γιώργου Μπάτη]
TTITLE15=Κάβουρας Γιώργος - Τα τσαχπίνικά σου μάτια [1938, Κώστα Σκαρβέλη]
TTITLE16=Κηρομύτης Στέλιος - Μέσ' στου Βάβουλα τη γούβα [1937, Στέλιου Κηρομύτ
TTITLE16=η]
TTITLE17=Βαμβακάρης Μάρκος - Νόστιμο τρελλό μικρό μου [1938, Μάρκου Βαμβακάρη]
TTITLE18=Παγιουμτζής Στράτος - Ο κόσμος πλούτη λαχταρά [1939, Στράτου Παγιουμτ
TTITLE18=ζή]
TTITLE19=Παγιουμτζής Στράτος-Περπινιάδης Στελλάκης - Τώρα γυρνάς στις γειτονιέ
TTITLE19=ς [1939, Βασ. Τσιτσάνη-Στρ. Παγιουμτζή]
EXTD=
EXTT0=
EXTT1=
EXTT2=
EXTT3=
EXTT4=
EXTT5=
EXTT6=
EXTT7=
EXTT8=
EXTT9=
EXTT10=
EXTT11=
EXTT12=
EXTT13=
EXTT14=
EXTT15=
EXTT16=
EXTT17=
EXTT18=
EXTT19=
PLAYORDER=
